<?xml version="1.0" encoding="UTF-8"?>
<svg id="Layer_2" data-name="Layer 2" xmlns="http://www.w3.org/2000/svg" xmlns:xlink="http://www.w3.org/1999/xlink" viewBox="0 0 1656.31 445.38">
  <defs>
    <style>
      .cls-1 {
        fill: url(#linear-gradient-2);
      }

      .cls-2 {
        fill: #fff;
      }

      .cls-3 {
        fill: url(#linear-gradient-17);
      }

      .cls-4 {
        fill: url(#linear-gradient-15);
      }

      .cls-5 {
        fill: url(#linear-gradient-18);
      }

      .cls-6 {
        fill: url(#linear-gradient-14);
      }

      .cls-7 {
        fill: url(#linear-gradient-6);
      }

      .cls-8 {
        fill: url(#linear-gradient-11);
      }

      .cls-9 {
        fill: url(#linear-gradient-10);
      }

      .cls-10 {
        fill: #3d3938;
      }

      .cls-11 {
        fill: url(#linear-gradient-16);
      }

      .cls-12 {
        fill: #919086;
      }

      .cls-13 {
        fill: #977f2e;
      }

      .cls-14 {
        fill: url(#linear-gradient-5);
      }

      .cls-15 {
        fill: url(#linear-gradient-7);
      }

      .cls-16 {
        fill: url(#linear-gradient-9);
      }

      .cls-17 {
        fill: url(#linear-gradient-3);
      }

      .cls-18 {
        fill: url(#linear-gradient);
      }

      .cls-19 {
        fill: #977d23;
      }

      .cls-20 {
        fill: url(#linear-gradient-19);
      }

      .cls-21 {
        fill: url(#linear-gradient-4);
      }

      .cls-22 {
        fill: url(#linear-gradient-8);
      }

      .cls-23 {
        fill: url(#linear-gradient-12);
      }

      .cls-24 {
        fill: url(#linear-gradient-13);
      }
    </style>
    <linearGradient id="linear-gradient" x1="1086.93" y1="435.36" x2="1086.93" y2="291.01" gradientUnits="userSpaceOnUse">
      <stop offset="0" stop-color="#f0e9d6"/>
      <stop offset=".3" stop-color="#f1ebda"/>
      <stop offset=".65" stop-color="#f6f3e8"/>
      <stop offset="1" stop-color="#fff"/>
    </linearGradient>
    <linearGradient id="linear-gradient-2" x1="949.15" y1="435.13" x2="949.15" y2="291.23" xlink:href="#linear-gradient"/>
    <linearGradient id="linear-gradient-3" x1="326.2" y1="434.09" x2="326.2" y2="291.87" xlink:href="#linear-gradient"/>
    <linearGradient id="linear-gradient-4" x1="827.82" y1="434.93" x2="827.82" y2="291.37" xlink:href="#linear-gradient"/>
    <linearGradient id="linear-gradient-5" x1="470.63" y1="434.37" x2="470.63" y2="291.71" xlink:href="#linear-gradient"/>
    <linearGradient id="linear-gradient-6" x1="616.56" y1="434.62" x2="616.56" y2="291.53" xlink:href="#linear-gradient"/>
    <linearGradient id="linear-gradient-7" x1="731.57" y1="434.73" x2="731.57" y2="291.45" xlink:href="#linear-gradient"/>
    <linearGradient id="linear-gradient-8" x1="1341.06" y1="407.92" x2="1341.06" y2="322.66" gradientUnits="userSpaceOnUse">
      <stop offset="0" stop-color="#fad9e8"/>
      <stop offset=".06" stop-color="#fad8df"/>
      <stop offset=".15" stop-color="#fad7c6"/>
      <stop offset=".27" stop-color="#fcd59f"/>
      <stop offset=".41" stop-color="#fdd269"/>
      <stop offset=".5" stop-color="#ffd140"/>
      <stop offset=".67" stop-color="#ffd142"/>
      <stop offset=".75" stop-color="#ffd349"/>
      <stop offset=".8" stop-color="#ffd655"/>
      <stop offset=".85" stop-color="#ffda67"/>
      <stop offset=".88" stop-color="#ffe07e"/>
      <stop offset=".92" stop-color="#ffe69a"/>
      <stop offset=".95" stop-color="#ffefbc"/>
      <stop offset=".98" stop-color="#fff8e2"/>
      <stop offset="1" stop-color="#fff"/>
    </linearGradient>
    <linearGradient id="linear-gradient-9" x1="1216.67" y1="407.78" x2="1216.67" y2="322.72" xlink:href="#linear-gradient-8"/>
    <linearGradient id="linear-gradient-10" x1="1552.62" y1="222.3" x2="1552.62" y2="14.02" gradientUnits="userSpaceOnUse">
      <stop offset=".13" stop-color="#bcb2ae"/>
      <stop offset=".75" stop-color="#bcb2ae"/>
      <stop offset="1" stop-color="#fff"/>
    </linearGradient>
    <linearGradient id="linear-gradient-11" x1="1199.29" y1="221.68" x2="1199.29" y2="14.79" xlink:href="#linear-gradient-10"/>
    <linearGradient id="linear-gradient-12" x1="1177.31" y1="64.4" x2="1177.31" y2="60.4" xlink:href="#linear-gradient-10"/>
    <linearGradient id="linear-gradient-13" x1="1366.51" y1="221.86" x2="1366.51" y2="14.41" xlink:href="#linear-gradient-10"/>
    <linearGradient id="linear-gradient-14" x1="1012.61" y1="221.33" x2="1012.61" y2="15.18" xlink:href="#linear-gradient-10"/>
    <linearGradient id="linear-gradient-15" x1="834.56" y1="220.98" x2="834.56" y2="15.56" xlink:href="#linear-gradient-10"/>
    <linearGradient id="linear-gradient-16" x1="318.25" y1="219.96" x2="318.25" y2="16.7" xlink:href="#linear-gradient-10"/>
    <linearGradient id="linear-gradient-17" x1="145.75" y1="219.78" x2="145.75" y2="16.89" xlink:href="#linear-gradient-10"/>
    <linearGradient id="linear-gradient-18" x1="659.13" y1="220.68" x2="659.13" y2="15.9" xlink:href="#linear-gradient-10"/>
    <linearGradient id="linear-gradient-19" x1="464.81" y1="220.34" x2="464.81" y2="16.27" xlink:href="#linear-gradient-10"/>
  </defs>
  <g id="Layer_1-2" data-name="Layer 1">
    <g id="SubLogo">
      <g>
        <polygon points="362.78 314.41 346.85 256.3 307.46 287.94 325.94 349.38 342.62 349.38 378.29 314.4 362.78 314.41"/>
        <polygon points="410.99 256.19 376.59 287.87 396.63 364.25 383.96 378.58 387.73 392.46 375.48 406.8 383.17 434.1 414.5 395 411.39 382.88 422.88 368.97 419.66 356 431.52 342.1 410.99 256.19"/>
        <polygon points="470.46 378.63 482.77 434.27 507.44 395.09 496.75 342.09 470.46 378.63"/>
        <polygon points="506.75 314.33 491.16 314.34 485.38 285.67 457.29 319.12 463.99 349.39 480.76 349.39 506.75 314.33"/>
        <polygon points="519.86 287.71 546.65 434.37 567.03 395.14 543.87 255.97 519.86 287.71"/>
        <polygon points="632.39 285.51 616.47 285.52 612.65 255.85 594.03 287.63 598.47 319.05 615.62 319.04 619.62 349.4 620.39 349.4 606.91 378.72 614.8 434.49 630.59 395.2 624.69 349.4 636.49 349.4 651.51 314.24 635.83 314.25 632.39 285.51"/>
        <polygon points="681.41 287.53 695.06 434.62 705.45 395.27 693.65 255.71 681.41 287.53"/>
        <polygon points="756.03 287.45 763.59 434.74 769.34 395.33 762.81 255.6 756.03 287.45"/>
        <polygon class="cls-13" points="1287.87 342.04 1280.99 369.35 1313.31 407.89 1321.27 379.17 1287.87 342.04"/>
        <polygon class="cls-13" points="1168.33 369.3 1192.18 407.75 1198.05 379.09 1173.41 342.05 1168.33 369.3"/>
        <polygon points="1068.14 395.61 1084.22 435.28 1092.26 379.02 1075.11 342.06 1068.14 395.61"/>
        <polygon points="1078.75 313.99 1062.82 314 1079.32 349.43 1096.48 349.44 1100.86 318.8 1082.52 284.99 1078.75 313.99"/>
        <polygon points="1007.42 395.55 1019.04 435.17 1034.34 287.14 1020.62 255.16 1007.42 395.55"/>
        <polygon points="897.61 395.45 901.19 434.97 905.92 287.28 901.68 255.36 897.61 395.45"/>
        <polygon points="830.87 287.37 832.04 407.33 833.16 369.15 832.15 255.48 830.87 287.37"/>
      </g>
      <polygon points="1383.87 321.59 1385.71 315.4 1339.78 274.7 1295.51 274.75 1288.18 303.86 1255.93 303.88 1254.3 310.89 1248.3 303.89 1222.21 274.84 1176.75 274.89 1171.34 303.93 1167.04 303.94 1170.38 284.59 1142 244.95 1012.52 245.17 1001.12 366.34 999.16 359.22 965.52 359.21 970 286.28 959.55 245.26 892.97 245.38 889.61 360.7 889.52 359.17 844.07 359.15 843.07 245.46 775.75 245.58 773.35 245.58 707.85 245.69 703.84 245.7 639.86 245.81 622.44 245.84 559.97 245.94 553.34 245.95 428.13 246.17 419.88 246.18 360.25 246.28 355.48 246.29 296.58 246.39 244.98 284.23 279.34 388.51 295.64 388.52 304.66 416.71 320.71 416.73 329.18 444.01 388.97 444.11 418.82 406.85 428.16 444.17 489.29 444.28 491.62 444.28 553.72 444.38 559.31 444.39 622.55 444.5 633.57 417.1 635.67 417.1 639.02 444.53 703.76 444.64 707.05 444.64 773.24 444.76 775.24 444.76 891.64 444.96 893.06 444.96 1008.72 445.15 1012.55 445.16 1077.67 445.27 1077.87 443.76 1078.48 445.27 1142.64 445.38 1153.95 379.78 1159.53 389.06 1169.83 389.07 1187.61 417.74 1234.51 417.8 1240.95 389.12 1274.74 389.14 1276.74 380.96 1283.57 389.14 1285.54 389.14 1309.64 417.88 1355.26 417.94 1363.79 389.19 1397.75 389.21 1411.34 346.34 1383.87 321.59"/>
      <polygon class="cls-19" points="1398.86 349.46 1364.69 318.66 1373.31 318.66 1335 284.71 1302.31 284.74 1294.97 313.86 1262.87 313.88 1258.54 332.38 1242.7 313.89 1241.4 313.89 1216.6 284.84 1184.06 284.88 1178.65 313.93 1146.68 313.95 1141.95 342.05 1164.19 379.07 1169.67 349.44 1204.12 349.44 1210.41 318.74 1214.46 318.74 1238.62 349.45 1262.46 349.45 1287.25 379.14 1294.89 349.45 1329.5 349.45 1336.79 323.13 1364.16 349.45 1398.86 349.46"/>
      <g>
        <polygon class="cls-12" points="298.86 256.38 255.75 288 307.46 287.94 346.85 256.3 298.86 256.38"/>
        <polygon class="cls-12" points="362.87 256.27 324.73 287.92 376.59 287.87 410.99 256.19 362.87 256.27"/>
        <polygon class="cls-12" points="431.17 256.16 398.35 287.84 519.86 287.71 543.87 255.97 431.17 256.16"/>
        <polygon class="cls-12" points="541.74 287.68 594.03 287.63 612.65 255.85 564.16 255.93 541.74 287.68"/>
        <polygon class="cls-12" points="628.94 287.59 681.41 287.53 693.65 255.71 645.01 255.8 628.94 287.59"/>
        <polygon class="cls-12" points="703.42 287.51 756.03 287.45 762.81 255.6 714.05 255.68 703.42 287.51"/>
        <polygon class="cls-12" points="1135.87 254.96 1020.62 255.16 1034.34 287.14 1158.81 287.01 1135.87 254.96"/>
        <polygon class="cls-12" points="944.41 369.2 951.54 407.47 1001.1 407.52 990.54 369.22 944.41 369.2"/>
        <polygon class="cls-12" points="950.78 255.28 901.68 255.36 905.92 287.28 958.93 287.23 950.78 255.28"/>
        <polygon class="cls-12" points="833.16 369.15 832.04 407.33 881.38 407.39 879.1 369.17 833.16 369.15"/>
        <polygon class="cls-12" points="783.26 255.56 778.1 287.43 830.87 287.37 832.15 255.48 783.26 255.56"/>
      </g>
      <path class="cls-2" d="m376.59,287.87l23.8,90.72h-16.43s7.68,28.23,7.68,28.23l-16.15-.02,7.69,27.3-47.63-.08-8.47-27.28-16.11-.02-9.02-28.19h-16.37s-29.83-90.53-29.83-90.53l51.72-.06,18.48,61.44h16.68s-17.9-61.46-17.9-61.46l51.86-.06Zm58.38,146.32l47.81.08-12.31-55.63h16.49s11.78,55.66,11.78,55.66l47.92.08-26.79-146.67-121.51.13,36.62,146.34Zm45.79-84.8h-16.77s-6.7-30.27-6.7-30.27h17.06s6.41,30.27,6.41,30.27m148.19-61.8l7.54,61.81h-16.86s-4-30.36-4-30.36h-17.15s-4.44-31.41-4.44-31.41l-52.29.06,25.01,146.72,48.05.08-7.89-55.77h16.57s3.74,28.37,3.74,28.37l16.31.02,3.35,27.44,48.19.08-13.65-147.09-52.47.06Zm74.48-.08l11.86,147.15,48.31.08-7.56-147.29-52.6.06Zm315.62,147.66l48.87.08,7.48-56.24h16.87s-8.04,56.27-8.04,56.27l48.99.08,25.59-148.35-124.47.14-15.3,148.03Zm77.44-85.73h-17.16s4.07-30.63,4.07-30.63h17.46s-4.38,30.63-4.38,30.63m-190.57-62.15l-4.72,147.69,97.4.16,2.51-27.61-49.56-.06,7.39-120.24-53.01.06Zm-127.81.14l5.76,147.35,96.97.16.54-27.55-49.34-.06-1.17-119.96-52.76.06Z"/>
      <g>
        <path class="cls-18" d="m1154.81,291.01l-120.88.13-14.89,144.03,45.41.08,6.95-52.23h3.47s.53-4,.53-4h16.87s-8.04,56.27-8.04,56.27l45.68.08,24.9-144.35Zm-62.33,62.43h-17.16s4.07-30.63,4.07-30.63h3.47s.53-4,.53-4h17.46s-4.38,30.63-4.38,30.63h-3.43s-.57,4-.57,4Z"/>
        <polygon class="cls-1" points="954.93 291.23 905.79 291.28 901.19 434.97 994.95 435.13 997.1 411.52 947.54 411.47 954.93 291.23"/>
        <polygon class="cls-17" points="257.06 291.99 285.58 378.52 301.95 378.53 310.97 406.72 327.08 406.74 335.55 434.02 378.04 434.09 371.48 410.8 376.61 410.8 375.48 406.8 386.55 406.81 379.96 382.58 385.05 382.58 383.96 378.58 395.34 378.59 372.59 291.87 325.89 291.92 342.62 349.38 337.46 349.38 338.62 353.38 321.94 353.38 303.46 291.94 257.06 291.99"/>
        <polygon class="cls-21" points="826.87 291.37 778.26 291.42 783.86 434.77 876.91 434.93 877.38 411.39 828.04 411.33 826.87 291.37"/>
        <path class="cls-14" d="m434.97,434.19l42.92.07-11.43-51.63h4.89s-.89-4-.89-4h16.49s11.78,55.66,11.78,55.66l43.19.07-26.06-142.66-116.51.13,35.62,142.35Zm22.32-115.07h17.06s6.41,30.27,6.41,30.27h-4.85s.85,4,.85,4h-16.77s-6.7-30.27-6.7-30.27h4.88s-.88-4-.88-4Z"/>
        <polygon class="cls-7" points="677.41 291.53 629.43 291.58 636.49 349.4 632 349.4 632.49 353.4 615.62 353.4 611.62 323.04 594.47 323.05 590.03 291.63 542.42 291.68 566.75 434.41 610.23 434.48 602.91 382.72 607.48 382.72 606.91 378.72 623.48 378.73 627.22 407.09 643.53 407.11 646.87 434.54 690.69 434.62 677.41 291.53"/>
        <polygon class="cls-15" points="715.28 434.66 759.38 434.73 752.03 291.45 703.75 291.5 715.28 434.66"/>
      </g>
      <path class="cls-2" d="m1373.31,318.66l-9.14,30.8h34.7s-9.43,29.75-9.43,29.75l-34.1-.02-8.53,28.74-33.49-.04,7.96-28.72-34.01-.02,7.63-29.7h34.61s8.52-30.77,8.52-30.77l35.28-.02Zm-162.9.08l-6.29,30.7h-34.45s-5.48,29.62-5.48,29.62l33.86.02-5.87,28.66,33.33.04,6.44-28.68,33.94.02,7.26-29.68h-34.54s6.9-30.72,6.9-30.72l-35.12.02Z"/>
      <g>
        <polygon class="cls-22" points="1394.86 353.46 1360.16 353.45 1369.31 322.66 1336.91 322.68 1329.5 349.45 1326.6 349.45 1325.5 353.45 1293.86 353.45 1287.25 379.14 1321.27 379.17 1313.31 407.89 1343.99 407.92 1351.33 383.19 1354.14 383.19 1355.33 379.19 1386.7 379.21 1394.86 353.46"/>
        <polygon class="cls-16" points="1269.16 353.45 1234.62 353.45 1241.52 322.72 1209.59 322.74 1204.12 349.44 1200.94 349.44 1200.12 353.44 1168.93 353.44 1164.19 379.07 1198.05 379.09 1192.18 407.75 1222.41 407.78 1227.95 383.11 1231.05 383.11 1231.95 379.11 1262.87 379.13 1269.16 353.45"/>
      </g>
    </g>
    <g id="Logo">
      <g>
        <path d="m850.82,166.22l.46-75.23,59.62-.05,3.74-89.39-148.2.32-9.31.02-166.13.36-12.19.03-77.83.17-29.09.06-76.26.16-14.25.03-75.13.16-14.93.03-74.16.16-10.05,38.69L144.07,3.2l-72.77.16L0,226.14l76.04,21.91,71.77.15,12.1-44.84,4.71,1.83-5.42,20.84,63.03,22.33,72.85.16,16.38.04,73.6.16,15.86.04,74.46.16,30.81.07,75.67.16,14.01.03,162.81.35,10.29.02,144,.31,4.95-83.57-67.1-.06Zm-102.07-.1h-7.51s2.36-48.74,2.36-48.74l-9.41-26.3,29.3-.03-3.42,103.35-11.31-28.28Z"/>
        <polygon points="1610.45 75.21 1649.35 54.65 1632.06 0 1104.37 1.13 1092.1 1.16 923.41 1.52 922.27 249.87 1002.26 250.04 1008.96 250.05 1087.41 250.22 1101.51 250.25 1358.17 250.81 1410.13 227.75 1397.91 168.24 1406.86 168.25 1460.98 138.19 1449.88 90.48 1467.85 90.46 1507.67 251.13 1583.17 251.29 1656.31 228.98 1610.45 75.21"/>
      </g>
      <g>
        <polygon points="137.66 91.71 190.32 118.95 200.12 81.53 183.09 71.61 190.21 45.24 139.2 13.2 127.84 51.83 146.1 62.16 137.66 91.71"/>
        <path d="m191.73,132.93h-21.97s-4.75,17.69-4.75,17.69l-39.13-17.7h-21.91s-25.48,86.58-25.48,86.58l59.67,18.68,12.99-48.17,18.67,7.23,41.26.06,9.79-39.78h20.35s-49.49-24.59-49.49-24.59Zm-36.68,42.62l4.87-18.06h3.24s-4.85,18.07-4.85,18.07h-3.27Z"/>
        <polygon points="237.43 219.79 285.01 238.5 326.5 45.03 285.85 12.89 237.43 219.79"/>
        <polygon points="334.56 219.96 374.72 238.69 409.73 44.9 375.43 12.7 334.56 219.96"/>
        <polygon points="474.51 91.49 502.59 118.91 507.81 81.27 490.65 62.4 493.24 44.77 465.33 12.5 459.1 51.37 477.66 70.66 474.51 91.49"/>
        <polygon points="474 175.86 476.67 157.68 497.21 157.69 468.22 132.97 446.03 132.97 432.07 220.14 464.75 238.89 472.81 183.94 491.66 197.69 512.54 197.72 484.32 175.87 474 175.86"/>
        <polygon points="547.04 220.34 570.87 239.12 591.64 44.62 571.29 12.27 547.04 220.34"/>
        <polygon points="745.51 50.96 658.76 51.09 655.56 91.37 670.32 118.89 673.06 81.13 753.48 81.06 754.97 44.37 747.24 11.9 745.51 50.96"/>
        <polygon points="719.45 133.01 652.26 133 648.85 176.03 664.57 197.92 667.49 157.8 729.63 157.84 731.52 118.88 721.66 91.33 719.45 133.01"/>
        <polygon points="738.01 220.69 747.08 239.49 748.75 198.04 739.98 176.11 738.01 220.69"/>
        <polygon points="1478.55 49.93 1468.54 10.35 1423.73 43.34 1425.27 50 1361.43 50.09 1323.95 80.58 1406.37 80.51 1428.74 65.02 1432.32 80.49 1473.67 80.46 1513.5 241.14 1569.95 222.18 1523.24 49.87 1478.55 49.93"/>
        <polygon points="1590.43 49.77 1535.81 80.4 1577.3 80.37 1635.3 49.71 1590.43 49.77"/>
        <polygon points="1338.54 158.21 1402.27 158.25 1447.53 133.11 1378.48 133.1 1338.54 158.21"/>
        <polygon points="1256.26 43.6 1288.42 240.66 1325.42 221.74 1287.77 10.73 1256.26 43.6"/>
        <polygon points="1184.96 99.62 1187.8 99.61 1191.63 128.54 1219.02 101.4 1214.59 70.79 1224.19 60.35 1221.2 40.32 1199.18 40.36 1182.82 60.4 1179.81 60.4 1177.19 40.39 1155.2 40.43 1133.14 71.4 1153.5 71.38 1155.55 88.5 1146.59 99.63 1156.89 99.63 1164.8 90.14 1176.28 90.13 1177.34 98.36 1159.2 118.82 1160.36 128.53 1185.2 101.41 1184.96 99.62"/>
        <polygon points="1189.35 133.07 1163.91 158.1 1185 158.11 1195.57 240.46 1224.59 221.56 1212.19 133.07 1189.35 133.07"/>
        <polygon points="1089.83 43.86 1108.61 240.27 1130.19 221.39 1108.23 11.12 1089.83 43.86"/>
        <polygon points="1008.99 118.84 1021.44 91.14 1018.74 50.58 996.81 50.61 986.35 80.87 1006.68 80.85 1008.99 118.84"/>
        <polygon points="1050.3 118.84 1070.98 118.83 1088.45 91.09 1066.1 91.11 1050.3 118.84"/>
        <polygon points="1001.56 133.05 990.42 157.99 1011.38 158.01 1016.37 240.07 1030.1 221.21 1024.23 133.05 1001.56 133.05"/>
        <polygon points="924.43 44.11 929.99 239.89 936.38 221.04 929.88 11.5 924.43 44.11"/>
        <polygon points="837.31 176.2 838.63 198.16 839.34 80.99 900.02 80.94 903.62 50.74 838.14 50.83 837.31 176.2"/>
      </g>
      <g>
        <polygon class="cls-10" points="10.66 219.38 75.47 238.05 138.16 238.18 78.49 219.5 10.66 219.38"/>
        <polygon class="cls-10" points="169.19 219.67 221.97 238.37 285.01 238.5 237.43 219.79 169.19 219.67"/>
        <polygon class="cls-10" points="266.07 219.84 311.46 238.56 374.72 238.69 334.56 219.96 266.07 219.84"/>
        <polygon class="cls-10" points="363.32 220.01 401.28 238.75 464.75 238.89 432.07 220.14 363.32 220.01"/>
        <polygon class="cls-10" points="477.99 220.22 507.14 238.98 570.87 239.12 547.04 220.34 477.99 220.22"/>
        <polygon class="cls-10" points="576.02 220.4 597.62 239.17 747.08 239.49 738.01 220.69 576.02 220.4"/>
        <polygon class="cls-10" points="1569.95 222.18 1513.5 241.14 1579.69 241.29 1641.89 222.31 1569.95 222.18"/>
        <polygon class="cls-10" points="1288.42 240.66 1354.06 240.8 1396.71 221.87 1325.42 221.74 1288.42 240.66"/>
        <polygon class="cls-10" points="1130.19 221.39 1108.61 240.27 1173.8 240.41 1200.96 221.52 1130.19 221.39"/>
        <polygon class="cls-10" points="1224.59 221.56 1195.57 240.46 1260.97 240.6 1295.61 221.69 1224.59 221.56"/>
        <polygon class="cls-10" points="929.99 239.89 994.75 240.03 1006.64 221.17 936.38 221.04 929.99 239.89"/>
        <polygon class="cls-10" points="1016.37 240.07 1081.33 240.21 1100.59 221.34 1030.1 221.21 1016.37 240.07"/>
        <polygon class="cls-10" points="774 239.55 902.91 239.83 907 220.99 767.2 220.74 774 239.55"/>
      </g>
      <path class="cls-2" d="m285.85,12.89l-48.42,206.9-68.24-.12,22.54-86.73h-21.97s-11.45,42.62-11.45,42.62l-44.6-.04,12.17-42.59h-21.91s-25.48,86.58-25.48,86.58l-67.83-.12L76.61,13.34l62.6-.13-11.37,38.63,21.23-.03-11.4,39.9,43.18-.03,10.72-39.94,21.28-.03,10.06-38.69,62.95-.14Zm26.42-.06l-46.19,207.01,68.49.12L375.43,12.7l-63.17.14Zm195.39-.42l-11.29,79.06h-21.86s6.08-40.14,6.08-40.14l-21.49.03,6.23-38.87-63.38.14-38.62,207.38,68.75.12,13.96-87.17h22.19s-6.49,42.88-6.49,42.88l22.59.02-6.33,44.35,69.05.12,24.26-208.07-63.64.14Zm90.34-.19l-21.98,208.18,162,.29,1.97-44.58-91.13-.09,3.41-43.03h67.19s2.21-41.67,2.21-41.67l-66.09.04,3.2-40.29,86.75-.12,1.73-39.07-149.24.32Zm870.54-1.87l10.01,39.58,44.7-.06,46.7,172.32,71.94.13-51.46-172.54,44.87-.06-12.56-39.69-154.2.33Zm-180.76.39l37.65,211.01,71.29.13-18.24-88.77h69.05s-9.82-42.23-9.82-42.23l-67.89.04-8.38-40.82,89.07-.13-9.56-39.56-153.16.33Zm-157.58,210.66l70.77.13-11.61-88.45h22.83s12.41,88.49,12.41,88.49l71.01.13-35.25-210.9-152.13.33,21.97,210.27Zm94-161.04l-22.2.03,1.42,10.13h11.14s4.47,30.9,4.47,30.9h-11.28s-1.46-10.38-1.46-10.38h-22.46s1.36,10.4,1.36,10.4h-11.27s-3.92-30.88-3.92-30.88h11.13s-1.33-10.13-1.33-10.13l-22.16.03-2.45-20,21.98-.04,2.63,20.01,22.18-.03-2.81-20.02,22.02-.04,2.99,20.03m-143.19-49.17l-151.11.32,6.5,209.54,70.26.13-5.08-88.12h22.67s5.87,88.17,5.87,88.17l70.5.13-10.2-109.44h-22.53s-1.75-20.79-1.75-20.79h22.35s-7.45-79.93-7.45-79.93Zm-59.55,79.96h-22.3s-2.34-40.53-2.34-40.53l21.94-.03,2.7,40.56M774.12,11.84l-6.92,208.9,139.8.25-.89-44.72-68.81-.07.83-125.37,65.48-.09-.78-39.18-128.72.28Z"/>
      <g>
        <polygon class="cls-9" points="1617.74 14.02 1469.55 14.33 1478.55 49.93 1523.24 49.87 1569.95 222.18 1635.69 222.3 1585.43 53.77 1591.62 53.76 1590.43 49.77 1629.04 49.72 1617.74 14.02"/>
        <path class="cls-8" d="m1130.19,221.39l65.24.12-11.08-84.44h5.53s-.53-4-.53-4h22.83s12.41,88.49,12.41,88.49l65.34.12-34.58-206.89-146.72.32,21.55,206.28Zm25.01-180.96l21.98-.04,2.63,20.01,16.62-.02-2.25-16.02h5.56s-.56-4-.56-4l22.02-.04,2.99,20.03h-5.6s.6,4,.6,4l-16.64.02.86,6.13h11.14s4.47,30.9,4.47,30.9h-5.58s.58,4,.58,4h-11.28s-1.46-10.38-1.46-10.38h-16.93s.84,6.4.84,6.4h-5.52s.52,4,.52,4h-11.27s-3.92-30.88-3.92-30.88h5.51s-.51-4-.51-4h5.61s-.8-6.13-.8-6.13l-22.16.03-2.45-20h5.49s-.49-4-.49-4Z"/>
        <polygon class="cls-23" points="1174.81 64.4 1180.34 64.4 1179.81 60.4 1174.29 60.41 1174.81 64.4"/>
        <polygon class="cls-24" points="1435.94 14.41 1288.49 14.72 1325.42 221.74 1390.89 221.86 1373.48 137.1 1379.3 137.1 1378.48 133.1 1441.6 133.11 1432.71 94.87 1364.81 94.91 1356.43 54.09 1362.25 54.09 1361.43 50.09 1444.53 49.98 1435.94 14.41"/>
        <path class="cls-6" d="m1076,15.18l-145.99.31,6.38,205.55,65.03.12-4.85-84.12h5.23s-.23-4-.23-4h22.67s5.87,88.17,5.87,88.17l65.12.12-9.83-105.43h-22.53s-1.75-20.79-1.75-20.79h5.34s-.34-4-.34-4h16.98s-7.08-75.93-7.08-75.93Zm-59.55,79.96h-22.3s-2.34-40.53-2.34-40.53h5.23s-.23-4-.23-4l21.94-.03,2.7,40.56h-5.27s.27,4,.27,4Z"/>
        <polygon class="cls-4" points="773.99 15.83 767.2 220.74 901.92 220.98 901.12 180.27 832.31 180.2 833.14 54.83 838.11 54.83 838.14 50.83 898.54 50.75 897.84 15.56 773.99 15.83"/>
        <polygon class="cls-11" points="266.07 219.84 330.35 219.96 370.43 16.7 311.37 16.82 266.07 219.84"/>
        <polygon class="cls-3" points="280.85 16.89 221.86 17.01 212.84 51.71 208.88 51.72 207.84 55.71 190.49 55.74 180.84 91.68 176.91 91.68 175.84 95.68 132.66 95.71 144.06 55.8 122.84 55.83 134.2 17.2 75.33 17.33 10.66 219.38 74.67 219.5 98.97 136.92 102.79 136.92 103.97 132.92 125.89 132.92 113.72 175.51 154.39 175.55 164.76 136.93 168.69 136.93 169.76 132.93 191.73 132.93 169.19 219.67 233.37 219.78 280.85 16.89"/>
        <polygon class="cls-5" points="576.02 220.4 733.19 220.68 734.98 180.11 643.85 180.03 647.26 137 651.95 137 652.26 133 714.66 133.01 716.66 95.33 650.56 95.37 653.76 55.09 658.44 55.08 658.76 51.09 740.69 50.97 742.24 15.9 597.58 16.21 576.02 220.4"/>
        <polygon class="cls-20" points="566.29 16.27 507.09 16.4 496.37 91.48 491.94 91.48 491.37 95.48 469.51 95.49 475.59 55.34 454.1 55.37 460.33 16.5 401.2 16.63 363.32 220.01 427.71 220.13 441.03 136.97 445.39 136.97 446.03 132.97 468.22 132.97 461.73 175.85 484.32 175.87 477.99 220.22 542.5 220.34 566.29 16.27"/>
      </g>
      <polygon points="923.41 1.52 914.64 1.54 910.9 90.93 924.43 90.93 923.41 1.52"/>
      <polygon points="917.92 166.28 923.28 166.28 922.27 249.87 910.9 249.84 917.92 166.28"/>
    </g>
  </g>
</svg>