<?xml version="1.0" encoding="UTF-8"?>
<svg id="Layer_2" data-name="Layer 2" xmlns="http://www.w3.org/2000/svg" xmlns:xlink="http://www.w3.org/1999/xlink" viewBox="0 0 1656.31 445.63">
  <defs>
    <style>
      .cls-1 {
        fill: url(#linear-gradient-2);
      }

      .cls-2 {
        fill: #fff;
      }

      .cls-3 {
        fill: url(#linear-gradient-17);
      }

      .cls-4 {
        fill: url(#linear-gradient-15);
      }

      .cls-5 {
        fill: url(#linear-gradient-18);
      }

      .cls-6 {
        fill: url(#linear-gradient-14);
      }

      .cls-7 {
        fill: url(#linear-gradient-6);
      }

      .cls-8 {
        fill: url(#linear-gradient-11);
      }

      .cls-9 {
        fill: url(#linear-gradient-10);
      }

      .cls-10 {
        fill: #3d3938;
      }

      .cls-11 {
        fill: url(#linear-gradient-16);
      }

      .cls-12 {
        fill: #919086;
      }

      .cls-13 {
        fill: #977f2e;
      }

      .cls-14 {
        fill: url(#linear-gradient-5);
      }

      .cls-15 {
        fill: url(#linear-gradient-7);
      }

      .cls-16 {
        fill: url(#linear-gradient-9);
      }

      .cls-17 {
        fill: url(#linear-gradient-3);
      }

      .cls-18 {
        fill: url(#linear-gradient);
      }

      .cls-19 {
        fill: #977d23;
      }

      .cls-20 {
        fill: url(#linear-gradient-4);
      }

      .cls-21 {
        fill: url(#linear-gradient-8);
      }

      .cls-22 {
        fill: url(#linear-gradient-12);
      }

      .cls-23 {
        fill: url(#linear-gradient-13);
      }
    </style>
    <linearGradient id="linear-gradient" x1="1552.62" y1="222.3" x2="1552.62" y2="14.02" gradientUnits="userSpaceOnUse">
      <stop offset=".13" stop-color="#bcb2ae"/>
      <stop offset=".75" stop-color="#bcb2ae"/>
      <stop offset="1" stop-color="#fff"/>
    </linearGradient>
    <linearGradient id="linear-gradient-2" x1="1199.29" y1="221.68" x2="1199.29" y2="14.79" xlink:href="#linear-gradient"/>
    <linearGradient id="linear-gradient-3" x1="1177.31" y1="64.4" x2="1177.31" y2="60.4" xlink:href="#linear-gradient"/>
    <linearGradient id="linear-gradient-4" x1="1366.51" y1="221.86" x2="1366.51" y2="14.41" xlink:href="#linear-gradient"/>
    <linearGradient id="linear-gradient-5" x1="1012.61" y1="221.33" x2="1012.61" y2="15.18" xlink:href="#linear-gradient"/>
    <linearGradient id="linear-gradient-6" x1="834.56" y1="220.98" x2="834.56" y2="15.56" xlink:href="#linear-gradient"/>
    <linearGradient id="linear-gradient-7" x1="318.25" y1="219.96" x2="318.25" y2="16.7" xlink:href="#linear-gradient"/>
    <linearGradient id="linear-gradient-8" x1="145.75" y1="219.78" x2="145.75" y2="16.89" xlink:href="#linear-gradient"/>
    <linearGradient id="linear-gradient-9" x1="659.13" y1="220.68" x2="659.13" y2="15.9" xlink:href="#linear-gradient"/>
    <linearGradient id="linear-gradient-10" x1="464.81" y1="220.34" x2="464.81" y2="16.27" xlink:href="#linear-gradient"/>
    <linearGradient id="linear-gradient-11" x1="1151.49" y1="436.37" x2="1151.49" y2="292.02" gradientUnits="userSpaceOnUse">
      <stop offset="0" stop-color="#f0e9d6"/>
      <stop offset=".3" stop-color="#f1ebda"/>
      <stop offset=".65" stop-color="#f6f3e8"/>
      <stop offset="1" stop-color="#fff"/>
    </linearGradient>
    <linearGradient id="linear-gradient-12" x1="1013.71" y1="436.14" x2="1013.71" y2="292.24" xlink:href="#linear-gradient-11"/>
    <linearGradient id="linear-gradient-13" x1="390.77" y1="435.1" x2="390.77" y2="292.88" xlink:href="#linear-gradient-11"/>
    <linearGradient id="linear-gradient-14" x1="892.38" y1="435.94" x2="892.38" y2="292.38" xlink:href="#linear-gradient-11"/>
    <linearGradient id="linear-gradient-15" x1="535.2" y1="435.38" x2="535.2" y2="292.72" xlink:href="#linear-gradient-11"/>
    <linearGradient id="linear-gradient-16" x1="681.12" y1="435.63" x2="681.12" y2="292.54" xlink:href="#linear-gradient-11"/>
    <linearGradient id="linear-gradient-17" x1="796.13" y1="435.75" x2="796.13" y2="292.46" xlink:href="#linear-gradient-11"/>
    <linearGradient id="linear-gradient-18" x1="1281.24" y1="408.79" x2="1281.24" y2="323.74" gradientUnits="userSpaceOnUse">
      <stop offset="0" stop-color="#fad9e8"/>
      <stop offset=".06" stop-color="#fad8df"/>
      <stop offset=".15" stop-color="#fad7c6"/>
      <stop offset=".27" stop-color="#fcd59f"/>
      <stop offset=".41" stop-color="#fdd269"/>
      <stop offset=".5" stop-color="#ffd140"/>
      <stop offset=".67" stop-color="#ffd142"/>
      <stop offset=".75" stop-color="#ffd349"/>
      <stop offset=".8" stop-color="#ffd655"/>
      <stop offset=".85" stop-color="#ffda67"/>
      <stop offset=".88" stop-color="#ffe07e"/>
      <stop offset=".92" stop-color="#ffe69a"/>
      <stop offset=".95" stop-color="#ffefbc"/>
      <stop offset=".98" stop-color="#fff8e2"/>
      <stop offset="1" stop-color="#fff"/>
    </linearGradient>
  </defs>
  <g id="Layer_1-2" data-name="Layer 1">
    <g id="Logo">
      <g>
        <path d="m850.82,166.22l.46-75.23,59.62-.05,3.74-89.39-148.2.32-9.31.02-166.13.36-12.19.03-77.83.17-29.09.06-76.26.16-14.25.03-75.13.16-14.93.03-74.16.16-10.05,38.69L144.07,3.2l-72.77.16L0,226.14l76.04,21.91,71.77.15,12.1-44.84,4.71,1.83-5.42,20.84,63.03,22.33,72.85.16,16.38.04,73.6.16,15.86.04,74.46.16,30.81.07,75.67.16,14.01.03,162.81.35,10.29.02,144,.31,4.95-83.57-67.1-.06Zm-102.07-.1h-7.51s2.36-48.74,2.36-48.74l-9.41-26.3,29.3-.03-3.42,103.35-11.31-28.28Z"/>
        <polygon points="1610.45 75.21 1649.35 54.65 1632.06 0 1104.37 1.13 1092.1 1.16 923.41 1.52 922.27 249.87 1002.26 250.04 1008.96 250.05 1087.41 250.22 1101.51 250.25 1358.17 250.81 1410.13 227.75 1397.91 168.24 1406.86 168.25 1460.98 138.19 1449.88 90.48 1467.85 90.46 1507.67 251.13 1583.17 251.29 1656.31 228.98 1610.45 75.21"/>
      </g>
      <g>
        <polygon points="137.66 91.71 190.32 118.95 200.12 81.53 183.09 71.61 190.21 45.24 139.2 13.2 127.84 51.83 146.1 62.16 137.66 91.71"/>
        <path d="m191.73,132.93h-21.97s-4.75,17.69-4.75,17.69l-39.13-17.7h-21.91s-25.48,86.58-25.48,86.58l59.67,18.68,12.99-48.17,18.67,7.23,41.26.06,9.79-39.78h20.35s-49.49-24.59-49.49-24.59Zm-36.68,42.62l4.87-18.06h3.24s-4.85,18.07-4.85,18.07h-3.27Z"/>
        <polygon points="237.43 219.79 285.01 238.5 326.5 45.03 285.85 12.89 237.43 219.79"/>
        <polygon points="334.56 219.96 374.72 238.69 409.73 44.9 375.43 12.7 334.56 219.96"/>
        <polygon points="474.51 91.49 502.59 118.91 507.81 81.27 490.65 62.4 493.24 44.77 465.33 12.5 459.1 51.37 477.66 70.66 474.51 91.49"/>
        <polygon points="474 175.86 476.67 157.68 497.21 157.69 468.22 132.97 446.03 132.97 432.07 220.14 464.75 238.89 472.81 183.94 491.66 197.69 512.54 197.72 484.32 175.87 474 175.86"/>
        <polygon points="547.04 220.34 570.87 239.12 591.64 44.62 571.29 12.27 547.04 220.34"/>
        <polygon points="745.51 50.96 658.76 51.09 655.56 91.37 670.32 118.89 673.06 81.13 753.48 81.06 754.97 44.37 747.24 11.9 745.51 50.96"/>
        <polygon points="719.45 133.01 652.26 133 648.85 176.03 664.57 197.92 667.49 157.8 729.63 157.84 731.52 118.88 721.66 91.33 719.45 133.01"/>
        <polygon points="738.01 220.69 747.08 239.49 748.75 198.04 739.98 176.11 738.01 220.69"/>
        <polygon points="1478.55 49.93 1468.54 10.35 1423.73 43.34 1425.27 50 1361.43 50.09 1323.95 80.58 1406.37 80.51 1428.74 65.02 1432.32 80.49 1473.67 80.46 1513.5 241.14 1569.95 222.18 1523.24 49.87 1478.55 49.93"/>
        <polygon points="1590.43 49.77 1535.81 80.4 1577.3 80.37 1635.3 49.71 1590.43 49.77"/>
        <polygon points="1338.54 158.21 1402.27 158.25 1447.53 133.11 1378.48 133.1 1338.54 158.21"/>
        <polygon points="1256.26 43.6 1288.42 240.66 1325.42 221.74 1287.77 10.73 1256.26 43.6"/>
        <polygon points="1184.96 99.62 1187.8 99.61 1191.63 128.54 1219.02 101.4 1214.59 70.79 1224.19 60.35 1221.2 40.32 1199.18 40.36 1182.82 60.4 1179.81 60.4 1177.19 40.39 1155.2 40.43 1133.14 71.4 1153.5 71.38 1155.55 88.5 1146.59 99.63 1156.89 99.63 1164.8 90.14 1176.28 90.13 1177.34 98.36 1159.2 118.82 1160.36 128.53 1185.2 101.41 1184.96 99.62"/>
        <polygon points="1189.35 133.07 1163.91 158.1 1185 158.11 1195.57 240.46 1224.59 221.56 1212.19 133.07 1189.35 133.07"/>
        <polygon points="1089.83 43.86 1108.61 240.27 1130.19 221.39 1108.23 11.12 1089.83 43.86"/>
        <polygon points="1008.99 118.84 1021.44 91.14 1018.74 50.58 996.81 50.61 986.35 80.87 1006.68 80.85 1008.99 118.84"/>
        <polygon points="1050.3 118.84 1070.98 118.83 1088.45 91.09 1066.1 91.11 1050.3 118.84"/>
        <polygon points="1001.56 133.05 990.42 157.99 1011.38 158.01 1016.37 240.07 1030.1 221.21 1024.23 133.05 1001.56 133.05"/>
        <polygon points="924.43 44.11 929.99 239.89 936.38 221.04 929.88 11.5 924.43 44.11"/>
        <polygon points="837.31 176.2 838.63 198.16 839.34 80.99 900.02 80.94 903.62 50.74 838.14 50.83 837.31 176.2"/>
      </g>
      <g>
        <polygon class="cls-10" points="10.66 219.38 75.47 238.05 138.16 238.18 78.49 219.5 10.66 219.38"/>
        <polygon class="cls-10" points="169.19 219.67 221.97 238.37 285.01 238.5 237.43 219.79 169.19 219.67"/>
        <polygon class="cls-10" points="266.07 219.84 311.46 238.56 374.72 238.69 334.56 219.96 266.07 219.84"/>
        <polygon class="cls-10" points="363.32 220.01 401.28 238.75 464.75 238.89 432.07 220.14 363.32 220.01"/>
        <polygon class="cls-10" points="477.99 220.22 507.14 238.98 570.87 239.12 547.04 220.34 477.99 220.22"/>
        <polygon class="cls-10" points="576.02 220.4 597.62 239.17 747.08 239.49 738.01 220.69 576.02 220.4"/>
        <polygon class="cls-10" points="1569.95 222.18 1513.5 241.14 1579.69 241.29 1641.89 222.31 1569.95 222.18"/>
        <polygon class="cls-10" points="1288.42 240.66 1354.06 240.8 1396.71 221.87 1325.42 221.74 1288.42 240.66"/>
        <polygon class="cls-10" points="1130.19 221.39 1108.61 240.27 1173.8 240.41 1200.96 221.52 1130.19 221.39"/>
        <polygon class="cls-10" points="1224.59 221.56 1195.57 240.46 1260.97 240.6 1295.61 221.69 1224.59 221.56"/>
        <polygon class="cls-10" points="929.99 239.89 994.75 240.03 1006.64 221.17 936.38 221.04 929.99 239.89"/>
        <polygon class="cls-10" points="1016.37 240.07 1081.33 240.21 1100.59 221.34 1030.1 221.21 1016.37 240.07"/>
        <polygon class="cls-10" points="774 239.55 902.91 239.83 907 220.99 767.2 220.74 774 239.55"/>
      </g>
      <path class="cls-2" d="m285.85,12.89l-48.42,206.9-68.24-.12,22.54-86.73h-21.97s-11.45,42.62-11.45,42.62l-44.6-.04,12.17-42.59h-21.91s-25.48,86.58-25.48,86.58l-67.83-.12L76.61,13.34l62.6-.13-11.37,38.63,21.23-.03-11.4,39.9,43.18-.03,10.72-39.94,21.28-.03,10.06-38.69,62.95-.14Zm26.42-.06l-46.19,207.01,68.49.12L375.43,12.7l-63.17.14Zm195.39-.42l-11.29,79.06h-21.86s6.08-40.14,6.08-40.14l-21.49.03,6.23-38.87-63.38.14-38.62,207.38,68.75.12,13.96-87.17h22.19s-6.49,42.88-6.49,42.88l22.59.02-6.33,44.35,69.05.12,24.26-208.07-63.64.14Zm90.34-.19l-21.98,208.18,162,.29,1.97-44.58-91.13-.09,3.41-43.03h67.19s2.21-41.67,2.21-41.67l-66.09.04,3.2-40.29,86.75-.12,1.73-39.07-149.24.32Zm870.54-1.87l10.01,39.58,44.7-.06,46.7,172.32,71.94.13-51.46-172.54,44.87-.06-12.56-39.69-154.2.33Zm-180.76.39l37.65,211.01,71.29.13-18.24-88.77h69.05s-9.82-42.23-9.82-42.23l-67.89.04-8.38-40.82,89.07-.13-9.56-39.56-153.16.33Zm-157.58,210.66l70.77.13-11.61-88.45h22.83s12.41,88.49,12.41,88.49l71.01.13-35.25-210.9-152.13.33,21.97,210.27Zm94-161.04l-22.2.03,1.42,10.13h11.14s4.47,30.9,4.47,30.9h-11.28s-1.46-10.38-1.46-10.38h-22.46s1.36,10.4,1.36,10.4h-11.27s-3.92-30.88-3.92-30.88h11.13s-1.33-10.13-1.33-10.13l-22.16.03-2.45-20,21.98-.04,2.63,20.01,22.18-.03-2.81-20.02,22.02-.04,2.99,20.03m-143.19-49.17l-151.11.32,6.5,209.54,70.26.13-5.08-88.12h22.67s5.87,88.17,5.87,88.17l70.5.13-10.2-109.44h-22.53s-1.75-20.79-1.75-20.79h22.35s-7.45-79.93-7.45-79.93Zm-59.55,79.96h-22.3s-2.34-40.53-2.34-40.53l21.94-.03,2.7,40.56M774.12,11.84l-6.92,208.9,139.8.25-.89-44.72-68.81-.07.83-125.37,65.48-.09-.78-39.18-128.72.28Z"/>
      <g>
        <polygon class="cls-18" points="1617.74 14.02 1469.55 14.33 1478.55 49.93 1523.24 49.87 1569.95 222.18 1635.69 222.3 1585.43 53.77 1591.62 53.76 1590.43 49.77 1629.04 49.72 1617.74 14.02"/>
        <path class="cls-1" d="m1130.19,221.39l65.24.12-11.08-84.44h5.53s-.53-4-.53-4h22.83s12.41,88.49,12.41,88.49l65.34.12-34.58-206.89-146.72.32,21.55,206.28Zm25.01-180.96l21.98-.04,2.63,20.01,16.62-.02-2.25-16.02h5.56s-.56-4-.56-4l22.02-.04,2.99,20.03h-5.6s.6,4,.6,4l-16.64.02.86,6.13h11.14s4.47,30.9,4.47,30.9h-5.58s.58,4,.58,4h-11.28s-1.46-10.38-1.46-10.38h-16.93s.84,6.4.84,6.4h-5.52s.52,4,.52,4h-11.27s-3.92-30.88-3.92-30.88h5.51s-.51-4-.51-4h5.61s-.8-6.13-.8-6.13l-22.16.03-2.45-20h5.49s-.49-4-.49-4Z"/>
        <polygon class="cls-17" points="1174.81 64.4 1180.34 64.4 1179.81 60.4 1174.29 60.41 1174.81 64.4"/>
        <polygon class="cls-20" points="1435.94 14.41 1288.49 14.72 1325.42 221.74 1390.89 221.86 1373.48 137.1 1379.3 137.1 1378.48 133.1 1441.6 133.11 1432.71 94.87 1364.81 94.91 1356.43 54.09 1362.25 54.09 1361.43 50.09 1444.53 49.98 1435.94 14.41"/>
        <path class="cls-14" d="m1076,15.18l-145.99.31,6.38,205.55,65.03.12-4.85-84.12h5.23s-.23-4-.23-4h22.67s5.87,88.17,5.87,88.17l65.12.12-9.83-105.43h-22.53s-1.75-20.79-1.75-20.79h5.34s-.34-4-.34-4h16.98s-7.08-75.93-7.08-75.93Zm-59.55,79.96h-22.3s-2.34-40.53-2.34-40.53h5.23s-.23-4-.23-4l21.94-.03,2.7,40.56h-5.27s.27,4,.27,4Z"/>
        <polygon class="cls-7" points="773.99 15.83 767.2 220.74 901.92 220.98 901.12 180.27 832.31 180.2 833.14 54.83 838.11 54.83 838.14 50.83 898.54 50.75 897.84 15.56 773.99 15.83"/>
        <polygon class="cls-15" points="266.07 219.84 330.35 219.96 370.43 16.7 311.37 16.82 266.07 219.84"/>
        <polygon class="cls-21" points="280.85 16.89 221.86 17.01 212.84 51.71 208.88 51.72 207.84 55.71 190.49 55.74 180.84 91.68 176.91 91.68 175.84 95.68 132.66 95.71 144.06 55.8 122.84 55.83 134.2 17.2 75.33 17.33 10.66 219.38 74.67 219.5 98.97 136.92 102.79 136.92 103.97 132.92 125.89 132.92 113.72 175.51 154.39 175.55 164.76 136.93 168.69 136.93 169.76 132.93 191.73 132.93 169.19 219.67 233.37 219.78 280.85 16.89"/>
        <polygon class="cls-16" points="576.02 220.4 733.19 220.68 734.98 180.11 643.85 180.03 647.26 137 651.95 137 652.26 133 714.66 133.01 716.66 95.33 650.56 95.37 653.76 55.09 658.44 55.08 658.76 51.09 740.69 50.97 742.24 15.9 597.58 16.21 576.02 220.4"/>
        <polygon class="cls-9" points="566.29 16.27 507.09 16.4 496.37 91.48 491.94 91.48 491.37 95.48 469.51 95.49 475.59 55.34 454.1 55.37 460.33 16.5 401.2 16.63 363.32 220.01 427.71 220.13 441.03 136.97 445.39 136.97 446.03 132.97 468.22 132.97 461.73 175.85 484.32 175.87 477.99 220.22 542.5 220.34 566.29 16.27"/>
      </g>
      <polygon points="923.41 1.52 914.64 1.54 910.9 90.93 924.43 90.93 923.41 1.52"/>
      <polygon points="917.92 166.28 923.28 166.28 922.27 249.87 910.9 249.84 917.92 166.28"/>
    </g>
    <g>
      <g>
        <polygon points="790.99 245.95 785.97 245.95 787.15 256.19 790.99 245.95"/>
        <polygon points="853.88 245.83 860.55 245.83 856.85 258.97 853.88 245.83"/>
        <g>
          <g>
            <polygon points="702.14 444.78 698.79 417.35 697.79 417.35 685.36 444.75 622.44 444.65 616.84 444.64 554.74 444.53 552.41 444.53 491.28 444.43 481.94 407.1 452.09 444.36 392.3 444.26 383.83 416.98 367.79 416.97 358.77 388.78 342.47 388.77 308.1 284.48 359.71 246.64 418.6 246.54 423.38 246.53 483 246.43 491.25 246.42 616.47 246.21 623.1 246.19 685.56 246.09 702.98 246.06 766.96 245.95 779.68 396.4 766.89 444.89 764.58 444.89 702.14 444.78"/>
            <path d="m709.14,256.05l-15.02,29.71-13.53.02-3.82-29.67-48.49.08-16.42,23.26-3.86-23.22-112.7.19-16.41,15.84-3.78-15.8-48.12.08-13.06,10.83-2.96-10.8-47.99.08-43.12,31.62h0s29.83,90.52,29.83,90.52h16.37s9.02,28.2,9.02,28.2l16.11.02,8.47,27.28,47.63.08h0l31.33-39.1-3.11-12.12,8.24-9.99,15.34,61.29,47.81.08h0l11.93-18.96,4.02,18.99,47.92.08,15.13-29.13,4.97,29.17,48.05.08h0l12.42-27.4,16.31.02,3.35,27.44,48.19.08h0s10.38-39.35,10.38-39.35l-11.8-139.56-48.64.08Z"/>
            <polygon points="770.18 444.9 757.42 286.53 770.97 245.94 836.47 245.83 843.5 396.08 836.36 445.01 770.18 444.9"/>
            <polygon points="778.18 255.93 767.55 287.76 779.41 434.91 823.51 434.99 823.51 434.99 827.72 434.99 833.46 395.59 826.93 255.85 778.18 255.93"/>
            <polygon points="956.19 445.21 951.72 396.01 956.09 245.63 1022.68 245.52 1033.13 286.53 1028.65 359.46 1062.29 359.48 1075.35 406.87 1071.84 445.4 956.19 445.21"/>
            <path d="m1065.23,407.78l-10.56-38.31-36.65-.02,5.04-81.98h0l-8.14-31.95-49.1.08-4.08,140.09,3.59,39.52,93.76.16h3.64s2.51-27.6,2.51-27.6h0Z"/>
            <polygon points="838.37 445.01 832.2 287.07 838.88 245.83 840.47 245.83 906.19 245.71 907.2 359.41 952.65 359.43 955.51 407.44 954.76 445.21 838.37 445.01"/>
            <polygon points="943.22 369.42 897.29 369.4 896.28 255.73 847.39 255.81 842.23 287.68 842.23 287.68 847.99 435.03 944.96 435.19 945.5 407.64 945.5 407.64 943.22 369.42"/>
            <polygon points="1141.61 445.52 1140.8 445.52 1075.67 445.41 1061.41 396.78 1075.64 245.43 1205.12 245.21 1233.5 284.84 1230.16 304.19 1234.46 304.19 1239.87 275.14 1285.33 275.09 1310.13 304.14 1311.43 304.14 1348.21 347.09 1337.87 389.39 1304.08 389.37 1297.64 418.05 1250.73 417.99 1232.95 389.32 1222.65 389.32 1217.08 380.04 1205.76 445.63 1141.61 445.52"/>
            <path d="m1337.28,349.7l-30.45-35.56h-1.31s-24.79-29.05-24.79-29.05l-32.54.04-5.41,29.05h-24.48s4.65-26.92,4.65-26.92h0l-22.94-32.05-115.24.2-13.21,140.4,11.62,39.61h0l48.87.08,4.03-30.28,12.28,30.3,45.68.08h3.31s14.46-83.78,14.46-83.78l16.52,27.49h10.2s17.78,28.68,17.78,28.68h0s33.33.04,33.33.04l5.54-24.67h0l.9-4h.29s30.63.02,30.63.02h3.02s7.26-29.68,7.26-29.68Z"/>
          </g>
          <g>
            <polygon points="427.34 315.43 411.42 257.31 372.03 288.95 390.51 350.39 407.19 350.39 442.86 315.42 427.34 315.43"/>
            <polygon points="475.55 257.21 441.15 288.88 461.19 365.26 448.52 379.59 452.3 393.48 440.05 407.81 447.74 435.11 479.06 396.01 475.96 383.89 487.44 369.98 484.23 357.01 496.08 343.11 475.55 257.21"/>
            <polygon points="535.03 379.64 547.34 435.28 572 396.1 561.32 343.11 535.03 379.64"/>
            <polygon points="571.31 315.34 555.73 315.35 549.95 286.69 521.86 320.13 528.56 350.4 545.32 350.4 571.31 315.34"/>
            <polygon points="584.43 288.72 611.21 435.39 631.59 396.15 608.44 256.98 584.43 288.72"/>
            <polygon points="696.95 286.52 681.03 286.54 677.21 256.86 658.6 288.64 663.04 320.06 680.19 320.05 684.19 350.41 684.96 350.41 671.48 379.73 679.36 435.5 695.16 396.21 689.26 350.41 701.05 350.41 716.07 315.25 700.4 315.26 696.95 286.52"/>
            <polygon points="745.98 288.54 759.63 435.64 770.01 396.28 758.22 256.73 745.98 288.54"/>
            <polygon points="820.59 288.46 828.16 435.75 833.9 396.34 827.37 256.61 820.59 288.46"/>
            <polygon class="cls-13" points="1232.9 370.31 1256.74 408.76 1262.61 380.1 1237.97 343.06 1232.9 370.31"/>
            <polygon points="1132.71 396.62 1148.79 436.29 1156.82 380.04 1139.67 343.07 1132.71 396.62"/>
            <polygon points="1143.32 315 1127.39 315.01 1143.89 350.45 1161.05 350.45 1165.43 319.81 1147.09 286.01 1143.32 315"/>
            <polygon points="1071.98 396.57 1083.61 436.18 1098.91 288.16 1085.19 256.17 1071.98 396.57"/>
            <polygon points="962.17 396.46 965.76 435.98 970.48 288.3 966.25 256.37 962.17 396.46"/>
            <polygon points="895.43 288.38 896.6 408.34 897.73 370.16 896.72 256.49 895.43 288.38"/>
          </g>
          <polyline class="cls-19" points="1337.72 350.46 1307.27 314.9 1305.96 314.9 1281.17 285.85 1248.63 285.89 1243.21 314.94 1211.25 314.96 1206.52 343.06 1228.76 380.08 1234.24 350.45 1268.68 350.46 1274.97 319.75 1279.03 319.75 1303.18 350.46"/>
          <g>
            <polygon class="cls-12" points="363.43 257.4 320.31 289.01 372.03 288.95 411.42 257.31 363.43 257.4"/>
            <polygon class="cls-12" points="427.44 257.29 389.29 288.94 441.15 288.88 475.55 257.21 427.44 257.29"/>
            <polygon class="cls-12" points="495.74 257.17 462.91 288.85 584.43 288.72 608.44 256.98 495.74 257.17"/>
            <polygon class="cls-12" points="606.3 288.7 658.6 288.64 677.21 256.86 628.73 256.95 606.3 288.7"/>
            <polygon class="cls-12" points="693.51 288.6 745.98 288.54 758.22 256.73 709.58 256.81 693.51 288.6"/>
            <polygon class="cls-12" points="767.99 288.52 820.59 288.46 827.37 256.61 778.62 256.69 767.99 288.52"/>
            <polygon class="cls-12" points="1200.43 255.97 1085.19 256.17 1098.91 288.16 1223.38 288.02 1200.43 255.97"/>
            <polygon class="cls-12" points="1008.98 370.21 1016.1 408.48 1065.67 408.54 1055.11 370.23 1008.98 370.21"/>
            <polygon class="cls-12" points="1015.35 256.29 966.25 256.37 970.48 288.3 1023.49 288.24 1015.35 256.29"/>
            <polygon class="cls-12" points="897.73 370.16 896.6 408.34 945.94 408.4 943.67 370.18 897.73 370.16"/>
            <polygon class="cls-12" points="847.83 256.57 842.67 288.44 895.43 288.38 896.72 256.49 847.83 256.57"/>
          </g>
          <path class="cls-2" d="m441.15,288.88l23.8,90.72h-16.43s7.68,28.23,7.68,28.23l-16.15-.02,7.69,27.3-47.63-.08-8.47-27.28-16.11-.02-9.02-28.19h-16.37s-29.83-90.53-29.83-90.53l51.72-.06,18.48,61.44h16.68s-17.9-61.46-17.9-61.46l51.86-.06Zm58.38,146.32l47.81.08-12.31-55.63h16.49s11.78,55.66,11.78,55.66l47.92.08-26.79-146.67-121.51.13,36.62,146.34Zm45.79-84.8h-16.77s-6.7-30.27-6.7-30.27h17.06s6.41,30.27,6.41,30.27m148.19-61.8l7.54,61.81h-16.86s-4-30.36-4-30.36h-17.15s-4.44-31.41-4.44-31.41l-52.29.06,25.01,146.72,48.05.08-7.89-55.77h16.57s3.74,28.37,3.74,28.37l16.31.02,3.35,27.44,48.19.08-13.65-147.09-52.47.06Zm74.48-.08l11.86,147.15,48.31.08-7.56-147.29-52.6.06Zm315.62,147.66l48.87.08,7.48-56.24h16.87s-8.04,56.27-8.04,56.27l48.99.08,25.59-148.35-124.47.14-15.3,148.03Zm77.44-85.73h-17.16s4.07-30.63,4.07-30.63h17.46s-4.38,30.63-4.38,30.63m-190.57-62.15l-4.72,147.69,97.4.16,2.51-27.61-49.56-.06,7.39-120.24-53.01.06Zm-127.81.14l5.76,147.35,96.97.16.54-27.55-49.34-.06-1.17-119.96-52.76.06Z"/>
          <g>
            <path class="cls-8" d="m1219.38,292.02l-120.88.13-14.89,144.03,45.41.08,6.95-52.23h3.47s.53-4,.53-4h16.87s-8.04,56.27-8.04,56.27l45.68.08,24.9-144.35Zm-62.33,62.43h-17.16s4.07-30.63,4.07-30.63h3.47s.53-4,.53-4h17.46s-4.38,30.63-4.38,30.63h-3.43s-.57,4-.57,4Z"/>
            <polygon class="cls-22" points="1019.49 292.24 970.36 292.29 965.76 435.98 1059.52 436.14 1061.67 412.54 1012.1 412.48 1019.49 292.24"/>
            <polygon class="cls-23" points="321.63 293.01 350.14 379.53 366.51 379.54 375.53 407.73 391.64 407.75 400.11 435.03 442.61 435.1 436.05 411.81 441.18 411.81 440.05 407.81 451.11 407.82 444.52 383.59 449.61 383.59 448.52 379.59 459.9 379.6 437.15 292.88 390.45 292.93 407.19 350.39 402.02 350.39 403.19 354.39 386.51 354.39 368.03 292.95 321.63 293.01"/>
            <polygon class="cls-6" points="891.43 292.38 842.83 292.43 848.43 435.79 941.48 435.94 941.94 412.4 892.6 412.34 891.43 292.38"/>
            <path class="cls-4" d="m499.53,435.2l42.92.07-11.43-51.63h4.89s-.89-4-.89-4h16.49s11.78,55.66,11.78,55.66l43.19.07-26.06-142.66-116.51.13,35.62,142.35Zm22.32-115.07h17.06s6.41,30.27,6.41,30.27h-4.85s.85,4,.85,4h-16.77s-6.7-30.27-6.7-30.27h4.88s-.88-4-.88-4Z"/>
            <polygon class="cls-11" points="741.98 292.54 694 292.6 701.05 350.41 696.56 350.41 697.05 354.41 680.19 354.41 676.19 324.05 659.04 324.06 654.6 292.64 606.99 292.69 631.32 435.42 674.8 435.49 667.48 383.73 672.04 383.73 671.48 379.73 688.05 379.74 691.78 408.1 708.09 408.12 711.44 435.56 755.26 435.63 741.98 292.54"/>
            <polygon class="cls-3" points="779.85 435.67 823.95 435.75 816.59 292.46 768.31 292.52 779.85 435.67"/>
          </g>
          <path class="cls-2" d="m1274.97,319.75l-6.29,30.7h-34.45s-5.48,29.62-5.48,29.62l33.86.02-5.87,28.66,33.33.04,6.44-28.68,33.94.02,7.26-29.68h-34.54s6.9-30.72,6.9-30.72l-35.12.02Z"/>
          <polygon class="cls-5" points="1333.72 354.46 1299.18 354.46 1306.09 323.74 1274.15 323.75 1268.68 350.46 1265.5 350.46 1264.68 354.46 1233.5 354.45 1228.76 380.08 1262.61 380.1 1256.74 408.76 1286.98 408.79 1292.52 384.12 1295.62 384.12 1296.52 380.12 1327.44 380.14 1333.72 354.46"/>
          <polygon points="774.11 445.01 769.57 432.72 765.22 444.89 774.11 445.01"/>
          <polygon points="835.24 445.01 841.28 445.02 837.82 430.93 835.24 445.01"/>
          <polygon points="953.28 445.21 958.28 445.21 954.67 429.91 953.28 445.21"/>
          <polygon points="1069.75 445.4 1077.36 445.4 1072.44 432.24 1069.75 445.4"/>
        </g>
      </g>
      <polygon points="762.82 245.96 777.71 245.83 767.55 258.97 762.82 245.96"/>
      <polygon points="834.71 245.95 846.05 245.95 836.65 259.55 834.71 245.95"/>
    </g>
  </g>
</svg>